<svg width="642" height="489" viewBox="0 0 642 489" fill="none" xmlns="http://www.w3.org/2000/svg">
<path opacity="0.78" d="M264.699 309.829C243.67 297.336 239.061 268.393 253.896 248.945C267.652 230.911 284.943 206.761 303.127 177.689C314.213 159.964 349.274 173.194 344.346 193.512L318.624 299.571C314.168 317.943 293.209 326.765 276.956 317.11L264.699 309.829Z" fill="#FFB7B7"/>
<path opacity="0.78" d="M385.903 209.257C418.024 225.732 411.185 279.759 377.876 293.677C343.897 307.877 299.472 273.879 311.246 238.985L315.501 226.375C323.563 202.482 350.984 191.347 373.422 202.855L385.903 209.257Z" fill="#FFF082"/>
<g filter="url(#filter0_d_119_479)">
<path fill-rule="evenodd" clip-rule="evenodd" d="M528 181C482.155 219.939 403.205 245.648 313.5 245.648C232.923 245.648 161.024 224.905 114 192.463V371H528V181Z" fill="#469FD1"/>
</g>
<defs>
<filter id="filter0_d_119_479" x="0" y="71" width="642" height="418" filterUnits="userSpaceOnUse" color-interpolation-filters="sRGB">
<feFlood flood-opacity="0" result="BackgroundImageFix"/>
<feColorMatrix in="SourceAlpha" type="matrix" values="0 0 0 0 0 0 0 0 0 0 0 0 0 0 0 0 0 0 127 0" result="hardAlpha"/>
<feOffset dy="4"/>
<feGaussianBlur stdDeviation="57"/>
<feComposite in2="hardAlpha" operator="out"/>
<feColorMatrix type="matrix" values="0 0 0 0 0.231373 0 0 0 0 0.34902 0 0 0 0 0.596078 0 0 0 0.27 0"/>
<feBlend mode="normal" in2="BackgroundImageFix" result="effect1_dropShadow_119_479"/>
<feBlend mode="normal" in="SourceGraphic" in2="effect1_dropShadow_119_479" result="shape"/>
</filter>
</defs>
</svg>
